<?xml version="1.0" encoding="UTF-8"?><svg id="uuid-64e8c0aa-e731-416c-805d-a869d8e79698" xmlns="http://www.w3.org/2000/svg" viewBox="0 0 184.48 53.62"><defs><style>.uuid-a3253c9b-372c-42c6-b3eb-bcb1ce99edbd{fill:#faa731;}.uuid-9b42b353-c7c5-441b-ba51-798a0f74f27c{fill:#121926;}.uuid-48df5fe5-2f0b-4f22-86c5-ac87af6e2e2b{isolation:isolate;}</style></defs><path class="uuid-a3253c9b-372c-42c6-b3eb-bcb1ce99edbd" d="m11.79,22.62c0-1.1.9-2,2-2h19.8v-3.1c0-6.08-4.92-11-11-11h-11.59C4.92,6.52,0,11.45,0,17.52v12.25c0,6.08,4.92,11,11,11h.79v-18.15Z"/><path class="uuid-a3253c9b-372c-42c6-b3eb-bcb1ce99edbd" d="m37.32,20.62h-3.74v9.15c0,6.07-4.93,10.99-11,11h-10.8v6.05c0,1.1.9,2,2,2h23.54c1.1,0,2-.9,2-2v-24.2c0-1.1-.9-2-2-2Z"/><g id="uuid-87215f29-874a-4e1e-b0f0-bad8e5792ad1"><g id="uuid-41dba3ed-91ef-4f20-9dbe-ab894189a9ef" class="uuid-48df5fe5-2f0b-4f22-86c5-ac87af6e2e2b"><g class="uuid-48df5fe5-2f0b-4f22-86c5-ac87af6e2e2b"><path class="uuid-9b42b353-c7c5-441b-ba51-798a0f74f27c" d="m61.73,17.9h-4.19v7.62h-3.97V6.09h9.53c1.36.03,2.41.19,3.14.5.73.31,1.36.76,1.87,1.36.42.49.76,1.04,1,1.63.25.6.37,1.28.37,2.04,0,.92-.23,1.83-.7,2.72-.47.89-1.23,1.52-2.31,1.89.9.36,1.53.87,1.91,1.54.37.66.56,1.68.56,3.04v1.31c0,.89.04,1.49.11,1.81.11.5.35.87.74,1.11v.49h-4.47c-.12-.43-.21-.78-.26-1.04-.11-.54-.16-1.1-.17-1.67l-.03-1.81c-.02-1.24-.24-2.07-.68-2.48-.43-.41-1.25-.62-2.45-.62Zm2.47-3.53c.81-.37,1.21-1.1,1.21-2.19,0-1.18-.39-1.97-1.17-2.37-.44-.23-1.1-.34-1.98-.34h-4.72v5.22h4.6c.91,0,1.6-.11,2.06-.32Z"/><path class="uuid-9b42b353-c7c5-441b-ba51-798a0f74f27c" d="m84.47,18.04V6.09h4.13v11.94c0,2.07-.32,3.67-.96,4.83-1.2,2.11-3.48,3.16-6.84,3.16s-5.65-1.05-6.86-3.16c-.64-1.15-.96-2.76-.96-4.83V6.09h4.13v11.94c0,1.34.16,2.31.47,2.93.49,1.09,1.56,1.63,3.22,1.63s2.71-.54,3.2-1.63c.32-.62.47-1.59.47-2.93ZM76.1,1.71h9.37v2h-9.37V1.71Z"/><path class="uuid-9b42b353-c7c5-441b-ba51-798a0f74f27c" d="m99.53,22.71c.96,0,1.74-.11,2.33-.32,1.13-.4,1.7-1.16,1.7-2.25,0-.64-.28-1.14-.84-1.49-.56-.34-1.45-.65-2.65-.91l-2.06-.46c-2.02-.46-3.42-.95-4.19-1.49-1.31-.9-1.96-2.3-1.96-4.21,0-1.74.63-3.19,1.9-4.34,1.27-1.15,3.12-1.73,5.58-1.73,2.05,0,3.79.54,5.24,1.63,1.45,1.08,2.2,2.66,2.27,4.73h-3.9c-.07-1.17-.58-2-1.53-2.49-.63-.33-1.42-.49-2.36-.49-1.05,0-1.88.21-2.5.63s-.94,1.01-.94,1.77c0,.69.31,1.21.92,1.55.4.23,1.24.5,2.53.8l3.35.8c1.47.35,2.58.82,3.32,1.41,1.16.91,1.74,2.24,1.74,3.97s-.68,3.25-2.04,4.42c-1.36,1.17-3.28,1.76-5.75,1.76s-4.52-.58-5.97-1.73c-1.45-1.16-2.18-2.74-2.18-4.77h3.88c.12.89.36,1.55.72,1.99.66.8,1.79,1.2,3.39,1.2ZM94.57,0h3.06l1.73,2.23,1.71-2.23h3.06l-3.08,3.94h-3.38l-3.1-3.94Z"/><path class="uuid-9b42b353-c7c5-441b-ba51-798a0f74f27c" d="m110.17,6.09h4.03v19.43h-4.03V6.09Z"/><path class="uuid-9b42b353-c7c5-441b-ba51-798a0f74f27c" d="m129.48,18.04V6.09h4.13v11.94c0,2.07-.32,3.67-.96,4.83-1.2,2.11-3.48,3.16-6.84,3.16s-5.65-1.05-6.86-3.16c-.64-1.15-.96-2.76-.96-4.83V6.09h4.13v11.94c0,1.34.16,2.31.47,2.93.49,1.09,1.56,1.63,3.22,1.63s2.71-.54,3.2-1.63c.32-.62.47-1.59.47-2.93Zm-4.34,9.58c-.29.32-.43.67-.43,1.05s.14.72.43.96c.29.23.65.35,1.08.35.19,0,.4-.03.61-.08s.45-.13.73-.22v1.9c-.4.15-.73.25-.99.32-.47.11-1.01.17-1.61.17-.92,0-1.68-.26-2.27-.77-.59-.51-.88-1.13-.88-1.84,0-.8.37-1.54,1.11-2.21.43-.4,1.12-.86,2.08-1.38h2.37l-.88.63c-.61.44-1.05.82-1.34,1.13Z"/></g></g><g id="uuid-d1a4354e-b913-4672-b93f-543bee37ae92" class="uuid-48df5fe5-2f0b-4f22-86c5-ac87af6e2e2b"><g class="uuid-48df5fe5-2f0b-4f22-86c5-ac87af6e2e2b"><path class="uuid-9b42b353-c7c5-441b-ba51-798a0f74f27c" d="m55.45,45.74c.06.62.21,1.09.47,1.42.47.59,1.3.89,2.47.89.7,0,1.31-.15,1.84-.45.53-.3.8-.76.8-1.38,0-.47-.21-.83-.64-1.08-.27-.15-.81-.32-1.6-.52l-1.49-.37c-.95-.23-1.65-.49-2.1-.78-.81-.5-1.21-1.19-1.21-2.07,0-1.04.38-1.88,1.14-2.52.76-.64,1.78-.96,3.06-.96,1.68,0,2.89.49,3.63,1.46.46.62.69,1.28.68,1.99h-1.74c-.04-.41-.19-.79-.45-1.13-.43-.48-1.19-.72-2.26-.72-.71,0-1.25.13-1.62.4-.37.27-.55.62-.55,1.05,0,.48.24.86.72,1.14.28.17.69.32,1.23.45l1.24.3c1.35.32,2.26.63,2.72.93.72.47,1.08,1.21,1.08,2.23s-.38,1.82-1.13,2.53c-.75.71-1.89,1.07-3.43,1.07-1.65,0-2.83-.37-3.51-1.11-.69-.74-1.06-1.66-1.11-2.75h1.77Z"/><path class="uuid-9b42b353-c7c5-441b-ba51-798a0f74f27c" d="m68.75,35.14h1.87v3.07h1.75v1.51h-1.75v7.17c0,.38.13.64.39.77.14.08.38.11.72.11.09,0,.18,0,.29,0,.1,0,.22-.02.36-.04v1.47c-.21.06-.43.11-.66.13s-.48.04-.74.04c-.86,0-1.45-.22-1.75-.66-.31-.44-.46-1.01-.46-1.72v-7.27h-1.49v-1.51h1.49v-3.07Z"/><path class="uuid-9b42b353-c7c5-441b-ba51-798a0f74f27c" d="m84.53,38.51c.73.37,1.28.84,1.66,1.42.37.55.61,1.2.73,1.94.11.51.16,1.31.16,2.42h-7.99c.03,1.12.29,2.01.78,2.69.49.68,1.24,1.01,2.27,1.01.96,0,1.72-.32,2.29-.96.32-.37.54-.8.68-1.29h1.81c-.05.4-.21.85-.48,1.35-.27.5-.57.9-.9,1.21-.56.55-1.25.92-2.07,1.11-.44.11-.94.16-1.5.16-1.36,0-2.51-.5-3.45-1.49-.94-.99-1.42-2.39-1.42-4.18s.48-3.2,1.43-4.3,2.19-1.65,3.73-1.65c.77,0,1.52.18,2.25.55Zm.66,4.31c-.07-.8-.25-1.44-.52-1.92-.5-.89-1.34-1.33-2.51-1.33-.84,0-1.55.31-2.11.92-.57.61-.87,1.39-.9,2.33h6.05Z"/><path class="uuid-9b42b353-c7c5-441b-ba51-798a0f74f27c" d="m92.8,34.08h1.79v5.47c.4-.53.89-.93,1.45-1.21.56-.28,1.17-.42,1.83-.42,1.37,0,2.49.47,3.34,1.41.85.94,1.28,2.33,1.28,4.16,0,1.74-.42,3.18-1.27,4.33-.84,1.15-2.01,1.72-3.51,1.72-.84,0-1.54-.2-2.12-.6-.34-.24-.71-.62-1.1-1.15v1.4h-1.7v-15.11Zm7.06,12.64c.5-.79.75-1.84.75-3.14,0-1.15-.25-2.11-.75-2.87-.5-.76-1.23-1.14-2.2-1.14-.84,0-1.58.31-2.22.93-.63.62-.95,1.65-.95,3.08,0,1.03.13,1.87.39,2.51.49,1.21,1.39,1.82,2.73,1.82,1,0,1.75-.4,2.25-1.19Z"/><path class="uuid-9b42b353-c7c5-441b-ba51-798a0f74f27c" d="m114.94,38.51c.73.37,1.28.84,1.66,1.42.37.55.61,1.2.73,1.94.11.51.16,1.31.16,2.42h-7.99c.03,1.12.29,2.01.78,2.69.49.68,1.24,1.01,2.27,1.01.96,0,1.72-.32,2.29-.96.32-.37.54-.8.68-1.29h1.81c-.05.4-.21.85-.48,1.35-.27.5-.57.9-.9,1.21-.56.55-1.24.92-2.07,1.11-.44.11-.94.16-1.5.16-1.36,0-2.51-.5-3.45-1.49-.94-.99-1.42-2.39-1.42-4.18s.47-3.2,1.43-4.3,2.2-1.65,3.73-1.65c.77,0,1.53.18,2.25.55Zm.66,4.31c-.08-.8-.25-1.44-.52-1.92-.5-.89-1.34-1.33-2.51-1.33-.84,0-1.54.31-2.12.92-.57.61-.87,1.39-.9,2.33h6.05Zm-3.75-8.16h1.92v2.13h-1.92v-2.13Z"/><path class="uuid-9b42b353-c7c5-441b-ba51-798a0f74f27c" d="m121.62,51.97c.83-.03,1.32-.1,1.49-.22.17-.12.25-.49.25-1.12v-12.37h1.85v12.56c0,.8-.13,1.4-.39,1.79-.43.67-1.25,1-2.45,1-.09,0-.18,0-.28,0-.1,0-.26-.02-.47-.04v-1.6Zm3.59-15.71h-1.85v-2.13h1.85v2.13Z"/><path class="uuid-9b42b353-c7c5-441b-ba51-798a0f74f27c" d="m131.56,34.13h1.88v2.09h-1.88v-2.09Zm0,4.13h1.88v10.93h-1.88v-10.93Z"/><path class="uuid-9b42b353-c7c5-441b-ba51-798a0f74f27c" d="m139.75,38.21h1.83v1.56c.44-.54.83-.93,1.19-1.18.61-.42,1.3-.63,2.07-.63.88,0,1.58.22,2.11.65.3.25.57.61.82,1.09.41-.59.89-1.02,1.45-1.31.55-.28,1.18-.43,1.87-.43,1.48,0,2.48.53,3.01,1.6.29.57.43,1.35.43,2.32v7.31h-1.92v-7.63c0-.73-.18-1.23-.55-1.51-.37-.27-.81-.41-1.34-.41-.72,0-1.35.24-1.87.73-.52.49-.79,1.3-.79,2.43v6.39h-1.88v-7.17c0-.74-.09-1.29-.27-1.63-.28-.51-.8-.77-1.57-.77-.7,0-1.33.27-1.9.81-.57.54-.86,1.52-.86,2.93v5.82h-1.85v-10.98Z"/><path class="uuid-9b42b353-c7c5-441b-ba51-798a0f74f27c" d="m166.66,42.54c.42-.05.71-.23.85-.53.08-.16.12-.4.12-.71,0-.63-.22-1.09-.67-1.37-.45-.29-1.09-.43-1.92-.43-.96,0-1.64.26-2.05.78-.22.29-.37.72-.44,1.29h-1.72c.03-1.36.47-2.3,1.32-2.83s1.82-.8,2.93-.8c1.29,0,2.34.25,3.14.74.8.49,1.2,1.26,1.2,2.3v6.33c0,.19.04.35.12.46.08.12.24.17.5.17.08,0,.17,0,.28-.02.1,0,.21-.03.33-.05v1.36c-.29.08-.51.13-.66.15s-.36.03-.62.03c-.64,0-1.1-.23-1.38-.68-.15-.24-.26-.58-.32-1.02-.38.49-.92.92-1.62,1.28-.7.36-1.48.54-2.33.54-1.02,0-1.85-.31-2.5-.93s-.97-1.39-.97-2.32c0-1.02.32-1.81.95-2.37s1.47-.9,2.5-1.03l2.94-.37Zm-3.89,4.99c.39.31.85.46,1.38.46.65,0,1.28-.15,1.89-.45,1.03-.5,1.54-1.31,1.54-2.45v-1.48c-.22.14-.51.26-.87.36-.36.1-.7.17-1.04.21l-1.12.14c-.67.09-1.17.23-1.51.42-.57.32-.86.83-.86,1.54,0,.53.19.95.58,1.26Z"/><path class="uuid-9b42b353-c7c5-441b-ba51-798a0f74f27c" d="m177.08,45.74c.06.62.21,1.09.47,1.42.47.59,1.3.89,2.47.89.7,0,1.31-.15,1.84-.45.53-.3.79-.76.79-1.38,0-.47-.21-.83-.64-1.08-.27-.15-.81-.32-1.6-.52l-1.49-.37c-.95-.23-1.65-.49-2.11-.78-.81-.5-1.21-1.19-1.21-2.07,0-1.04.38-1.88,1.14-2.52.76-.64,1.78-.96,3.06-.96,1.68,0,2.88.49,3.63,1.46.46.62.69,1.28.68,1.99h-1.74c-.04-.41-.19-.79-.45-1.13-.43-.48-1.19-.72-2.26-.72-.71,0-1.25.13-1.62.4s-.55.62-.55,1.05c0,.48.24.86.72,1.14.28.17.69.32,1.23.45l1.24.3c1.35.32,2.26.63,2.72.93.72.47,1.08,1.21,1.08,2.23s-.38,1.82-1.13,2.53c-.75.71-1.89,1.07-3.43,1.07-1.65,0-2.83-.37-3.51-1.11-.69-.74-1.06-1.66-1.11-2.75h1.77Z"/></g></g></g></svg>